<svg width="16" height="14" viewBox="0 0 16 14" fill="none" xmlns="http://www.w3.org/2000/svg">
<path fill-rule="evenodd" clip-rule="evenodd" d="M1.0893 7.53117C0.756504 7.48535 0.5 7.19585 0.5 6.84555C0.5 6.46341 0.80526 6.15362 1.18182 6.15362L13.1666 6.15362L8.83724 1.77767L8.77107 1.70021C8.57247 1.42974 8.59369 1.0453 8.83525 0.799135C9.10096 0.52836 9.53267 0.527453 9.79948 0.79711L15.2898 6.34582C15.3225 6.37761 15.3521 6.41268 15.378 6.4505C15.5639 6.72071 15.5377 7.09553 15.2994 7.33624L9.79944 12.8938L9.72283 12.9607C9.45548 13.1611 9.07675 13.1379 8.83521 12.8917C8.56952 12.6209 8.57045 12.1828 8.83729 11.9132L13.1677 7.53748L1.18182 7.53748L1.0893 7.53117Z" fill="#3B3B3B"/>
</svg>
