<svg width="56" height="57" viewBox="0 0 56 57" fill="none" xmlns="http://www.w3.org/2000/svg">
<path fill-rule="evenodd" clip-rule="evenodd" d="M52.5003 28.2219C52.5003 27.7578 52.3159 27.3127 51.9877 26.9845C51.6595 26.6563 51.2144 26.4719 50.7503 26.4719H9.47476L20.4893 15.4609C20.652 15.2982 20.781 15.1051 20.8691 14.8925C20.9571 14.6799 21.0025 14.452 21.0025 14.2219C21.0025 13.9918 20.9571 13.764 20.8691 13.5514C20.781 13.3388 20.652 13.1456 20.4893 12.9829C20.3266 12.8202 20.1334 12.6912 19.9208 12.6031C19.7082 12.515 19.4804 12.4697 19.2503 12.4697C19.0202 12.4697 18.7923 12.515 18.5797 12.6031C18.3671 12.6912 18.174 12.8202 18.0113 12.9829L4.01126 26.9829C3.84829 27.1455 3.71899 27.3386 3.63077 27.5512C3.54254 27.7638 3.49713 27.9917 3.49713 28.2219C3.49713 28.4521 3.54254 28.68 3.63077 28.8927C3.71899 29.1053 3.84829 29.2984 4.01126 29.4609L18.0113 43.4609C18.174 43.6236 18.3671 43.7527 18.5797 43.8408C18.7923 43.9288 19.0202 43.9741 19.2503 43.9741C19.4804 43.9741 19.7082 43.9288 19.9208 43.8408C20.1334 43.7527 20.3266 43.6236 20.4893 43.4609C20.652 43.2982 20.781 43.1051 20.8691 42.8925C20.9571 42.6799 21.0025 42.452 21.0025 42.2219C21.0025 41.9918 20.9571 41.764 20.8691 41.5514C20.781 41.3388 20.652 41.1456 20.4893 40.9829L9.47476 29.9719H50.7503C51.2144 29.9719 51.6595 29.7876 51.9877 29.4594C52.3159 29.1312 52.5003 28.6861 52.5003 28.2219Z" fill="#FF7342"/>
</svg>
