<svg width="40" height="41" viewBox="0 0 40 41" fill="none" xmlns="http://www.w3.org/2000/svg">
<path fill-rule="evenodd" clip-rule="evenodd" d="M2.49886 20.2223C2.49886 19.8908 2.63056 19.5728 2.86498 19.3384C3.0994 19.104 3.41734 18.9723 3.74886 18.9723H33.2314L25.3639 11.1073C25.2476 10.9911 25.1555 10.8531 25.0926 10.7012C25.0297 10.5494 24.9973 10.3866 24.9973 10.2223C24.9973 10.0579 25.0297 9.89517 25.0926 9.74332C25.1555 9.59148 25.2476 9.4535 25.3639 9.33728C25.4801 9.22106 25.6181 9.12887 25.7699 9.06597C25.9218 9.00308 26.0845 8.9707 26.2489 8.9707C26.4132 8.9707 26.576 9.00308 26.7278 9.06597C26.8797 9.12887 27.0176 9.22106 27.1339 9.33728L37.1339 19.3373C37.2503 19.4534 37.3426 19.5913 37.4056 19.7432C37.4687 19.8951 37.5011 20.0579 37.5011 20.2223C37.5011 20.3867 37.4687 20.5495 37.4056 20.7014C37.3426 20.8532 37.2503 20.9912 37.1339 21.1073L27.1339 31.1073C27.0176 31.2235 26.8797 31.3157 26.7278 31.3786C26.576 31.4415 26.4132 31.4739 26.2489 31.4739C26.0845 31.4739 25.9218 31.4415 25.7699 31.3786C25.6181 31.3157 25.4801 31.2235 25.3639 31.1073C25.2476 30.9911 25.1555 30.8531 25.0926 30.7012C25.0297 30.5494 24.9973 30.3866 24.9973 30.2223C24.9973 30.0579 25.0297 29.8952 25.0926 29.7433C25.1555 29.5915 25.2476 29.4535 25.3639 29.3373L33.2314 21.4723H3.74886C3.41734 21.4723 3.0994 21.3406 2.86498 21.1062C2.63056 20.8717 2.49886 20.5538 2.49886 20.2223Z" fill="#183B56"/>
</svg>
