<svg width="42" height="41" viewBox="0 0 42 41" fill="none" xmlns="http://www.w3.org/2000/svg">
<g clip-path="url(#clip0_1_54)">
<rect opacity="0.1" y="0.134766" width="42" height="40" rx="20" fill="#FF7342"/>
<path opacity="0.6" d="M28.9583 20.6555C28.9583 20.1555 28.8958 19.7805 28.8333 19.3743H21.4583V22.0305H25.8333C25.6771 23.1868 24.5208 25.3743 21.4583 25.3743C18.8021 25.3743 16.6458 23.1868 16.6458 20.468C16.6458 16.1243 21.7708 14.1243 24.5208 16.7805L26.6458 14.7493C25.3021 13.4993 23.5208 12.718 21.4583 12.718C17.1458 12.718 13.7083 16.1868 13.7083 20.468C13.7083 24.7805 17.1458 28.218 21.4583 28.218C25.9271 28.218 28.9583 25.093 28.9583 20.6555Z" fill="#FF7342"/>
</g>
<defs>
<clipPath id="clip0_1_54">
<rect width="42" height="40" fill="white" transform="translate(0 0.134766)"/>
</clipPath>
</defs>
</svg>
