<svg width="183" height="56" viewBox="0 0 183 56" fill="none" xmlns="http://www.w3.org/2000/svg">
<path d="M121.441 42.6729V13.611H115.744V25.2931H103.078V13.611H97.4211V42.6729H103.078V30.6218H115.744V42.6729H121.441ZM139.971 22.4238C139.561 22.3828 139.151 22.3418 138.7 22.3418C136.978 22.3418 134.191 22.8337 132.961 25.4981V22.5058H127.674V42.6729H133.125V33.4501C133.125 29.1052 135.544 27.7525 138.331 27.7525C138.823 27.7525 139.356 27.7935 139.971 27.9165V22.4238ZM156.102 22.4238C155.693 22.3828 155.283 22.3418 154.832 22.3418C153.11 22.3418 150.323 22.8337 149.093 25.4981V22.5058H143.805V42.6729H149.257V33.4501C149.257 29.1052 151.675 27.7525 154.463 27.7525C154.955 27.7525 155.488 27.7935 156.102 27.9165V22.4238Z" fill="#3B3B3B"/>
<path d="M179.041 12.9961H173.672V24.5143C173.098 23.4486 171.458 22.0139 167.974 22.0139C162.277 22.0139 158.3 26.6458 158.3 32.5483C158.3 38.6558 162.399 43.1647 168.138 43.1647C170.843 43.1647 172.893 41.935 173.795 40.3364C173.795 41.2792 173.918 42.263 174 42.6729H179.205C179.123 41.8531 179.041 40.3774 179.041 39.0247V12.9961ZM163.793 32.5483C163.793 28.9412 166.007 26.8917 168.794 26.8917C171.581 26.8917 173.754 28.9002 173.754 32.5073C173.754 36.1554 171.581 38.2869 168.794 38.2869C165.925 38.2869 163.793 36.1554 163.793 32.5483Z" fill="#FF7342"/>
<circle cx="44.417" cy="27.9987" r="26.115" fill="#FF7342"/>
<rect y="27.999" width="85.5318" height="9.65328" rx="4.82664" transform="rotate(-15 0 27.999)" fill="#FF7342"/>
<rect x="12.1051" y="24.7539" width="60.4674" height="9.65328" rx="4.82664" transform="rotate(-15 12.1051 24.7539)" fill="#FF4F11"/>
<rect x="10.4581" y="42.1221" width="73.1181" height="9.65328" rx="4.82664" transform="rotate(-15 10.4581 42.1221)" fill="#FF7342"/>
<rect x="10.4581" y="42.1221" width="73.1181" height="9.65328" rx="4.82664" transform="rotate(-15 10.4581 42.1221)" fill="#FF4F11"/>
</svg>
