<svg width="40" height="41" viewBox="0 0 40 41" fill="none" xmlns="http://www.w3.org/2000/svg">
<g clip-path="url(#clip0_1_64)">
<rect opacity="0.1" y="0.134766" width="40" height="40" rx="20" fill="#FF7342"/>
<path opacity="0.6" d="M20.3333 16.8743C18.3333 16.8743 16.7396 18.4993 16.7396 20.468C16.7396 22.468 18.3333 24.0618 20.3333 24.0618C22.3021 24.0618 23.9271 22.468 23.9271 20.468C23.9271 18.4993 22.3021 16.8743 20.3333 16.8743ZM20.3333 22.8118C19.0521 22.8118 17.9896 21.7805 17.9896 20.468C17.9896 19.1868 19.0208 18.1555 20.3333 18.1555C21.6146 18.1555 22.6458 19.1868 22.6458 20.468C22.6458 21.7805 21.6146 22.8118 20.3333 22.8118ZM24.8958 16.7493C24.8958 16.2805 24.5208 15.9055 24.0521 15.9055C23.5833 15.9055 23.2083 16.2805 23.2083 16.7493C23.2083 17.218 23.5833 17.593 24.0521 17.593C24.5208 17.593 24.8958 17.218 24.8958 16.7493ZM27.2708 17.593C27.2083 16.468 26.9583 15.468 26.1458 14.6555C25.3333 13.843 24.3333 13.593 23.2083 13.5305C22.0521 13.468 18.5833 13.468 17.4271 13.5305C16.3021 13.593 15.3333 13.843 14.4896 14.6555C13.6771 15.468 13.4271 16.468 13.3646 17.593C13.3021 18.7493 13.3021 22.218 13.3646 23.3743C13.4271 24.4993 13.6771 25.468 14.4896 26.3118C15.3333 27.1243 16.3021 27.3743 17.4271 27.4368C18.5833 27.4993 22.0521 27.4993 23.2083 27.4368C24.3333 27.3743 25.3333 27.1243 26.1458 26.3118C26.9583 25.468 27.2083 24.4993 27.2708 23.3743C27.3333 22.218 27.3333 18.7493 27.2708 17.593ZM25.7708 24.593C25.5521 25.218 25.0521 25.6868 24.4583 25.9368C23.5208 26.3118 21.3333 26.218 20.3333 26.218C19.3021 26.218 17.1146 26.3118 16.2083 25.9368C15.5833 25.6868 15.1146 25.218 14.8646 24.593C14.4896 23.6868 14.5833 21.4993 14.5833 20.468C14.5833 19.468 14.4896 17.2805 14.8646 16.343C15.1146 15.7493 15.5833 15.2805 16.2083 15.0305C17.1146 14.6555 19.3021 14.7493 20.3333 14.7493C21.3333 14.7493 23.5208 14.6555 24.4583 15.0305C25.0521 15.2493 25.5208 15.7493 25.7708 16.343C26.1458 17.2805 26.0521 19.468 26.0521 20.468C26.0521 21.4993 26.1458 23.6868 25.7708 24.593Z" fill="#FF7342"/>
</g>
<defs>
<clipPath id="clip0_1_64">
<rect width="40" height="40" fill="white" transform="translate(0 0.134766)"/>
</clipPath>
</defs>
</svg>
