<svg width="40" height="41" viewBox="0 0 40 41" fill="none" xmlns="http://www.w3.org/2000/svg">
<g clip-path="url(#clip0_1_69)">
<rect opacity="0.1" y="0.134766" width="40" height="40" rx="20" fill="#FF7342"/>
<path opacity="0.6" d="M26.3334 13.468H14.3021C13.7709 13.468 13.3334 13.9368 13.3334 14.4993V26.468C13.3334 27.0305 13.7709 27.468 14.3021 27.468H26.3334C26.8646 27.468 27.3334 27.0305 27.3334 26.468V14.4993C27.3334 13.9368 26.8646 13.468 26.3334 13.468ZM17.5521 25.468H15.4896V18.8118H17.5521V25.468ZM16.5209 17.8743C15.8334 17.8743 15.3021 17.343 15.3021 16.6868C15.3021 16.0305 15.8334 15.468 16.5209 15.468C17.1771 15.468 17.7084 16.0305 17.7084 16.6868C17.7084 17.343 17.1771 17.8743 16.5209 17.8743ZM25.3334 25.468H23.2396V22.218C23.2396 21.468 23.2396 20.468 22.1771 20.468C21.0834 20.468 20.9271 21.3118 20.9271 22.1868V25.468H18.8646V18.8118H20.8334V19.718H20.8646C21.1459 19.1868 21.8334 18.6243 22.8334 18.6243C24.9271 18.6243 25.3334 20.0305 25.3334 21.8118V25.468Z" fill="#FF7342"/>
</g>
<defs>
<clipPath id="clip0_1_69">
<rect width="40" height="40" fill="white" transform="translate(0 0.134766)"/>
</clipPath>
</defs>
</svg>
