<svg width="365" height="457" viewBox="0 0 365 457" fill="none" xmlns="http://www.w3.org/2000/svg">
<circle cx="171.488" cy="171.488" r="170.942" transform="matrix(-1 -8.74228e-08 -8.74228e-08 1 342.977 88.1835)" stroke="#37E0F5" stroke-opacity="0.3" stroke-width="1.09325"/>
<circle cx="171.488" cy="171.488" r="170.942" transform="matrix(-1 -8.74228e-08 -8.74228e-08 1 388.103 101.127)" stroke="#37E0F5" stroke-opacity="0.3" stroke-width="1.09325"/>
<circle cx="175.61" cy="281.005" r="163.1" fill="#37E0F5"/>
<path d="M131.133 424.679H123.321V418.429C123.321 415.011 126.055 412.179 129.571 412.179H130.352C131.622 412.179 132.696 411.202 132.696 409.835V405.148C132.696 403.878 131.622 402.804 130.352 402.804H129.571C120.879 402.804 113.946 409.835 113.946 418.429V441.866C113.946 444.503 115.997 446.554 118.633 446.554H131.133C133.672 446.554 135.821 444.503 135.821 441.866V429.366C135.821 426.827 133.672 424.679 131.133 424.679ZM103.008 424.679H95.1957V418.429C95.1957 415.011 97.9301 412.179 101.446 412.179H102.227C103.497 412.179 104.571 411.202 104.571 409.835V405.148C104.571 403.878 103.497 402.804 102.227 402.804H101.446C92.7543 402.804 85.8207 409.835 85.8207 418.429V441.866C85.8207 444.503 87.8715 446.554 90.5082 446.554H103.008C105.547 446.554 107.696 444.503 107.696 441.866V429.366C107.696 426.827 105.547 424.679 103.008 424.679Z" fill="#333333"/>
</svg>
