<svg width="775" height="910" viewBox="0 0 775 910" fill="none" xmlns="http://www.w3.org/2000/svg">
<circle cx="341.716" cy="341.716" r="341.216" transform="matrix(-1 -8.74228e-08 -8.74228e-08 1 684.205 176.568)" stroke="#37E0F5"/>
<circle cx="341.716" cy="341.716" r="341.216" transform="matrix(-1 -8.74228e-08 -8.74228e-08 1 774.125 202.36)" stroke="#37E0F5"/>
<circle cx="350.701" cy="560.791" r="325" fill="#37E0F5"/>
<path d="M262.225 848.291H246.6V835.791C246.6 828.955 252.069 823.291 259.1 823.291H260.663C263.202 823.291 265.35 821.338 265.35 818.604V809.229C265.35 806.689 263.202 804.541 260.663 804.541H259.1C241.717 804.541 227.85 818.604 227.85 835.791V882.666C227.85 887.939 231.952 892.041 237.225 892.041H262.225C267.303 892.041 271.6 887.939 271.6 882.666V857.666C271.6 852.588 267.303 848.291 262.225 848.291ZM205.975 848.291H190.35V835.791C190.35 828.955 195.819 823.291 202.85 823.291H204.413C206.952 823.291 209.1 821.338 209.1 818.604V809.229C209.1 806.689 206.952 804.541 204.413 804.541H202.85C185.467 804.541 171.6 818.604 171.6 835.791V882.666C171.6 887.939 175.702 892.041 180.975 892.041H205.975C211.053 892.041 215.35 887.939 215.35 882.666V857.666C215.35 852.588 211.053 848.291 205.975 848.291Z" fill="#3B3B3B"/>
</svg>
