<svg width="42" height="41" viewBox="0 0 42 41" fill="none" xmlns="http://www.w3.org/2000/svg">
<g clip-path="url(#clip0_1_59)">
<rect opacity="0.1" y="0.134766" width="42" height="40" rx="20" fill="#FF7342"/>
<path opacity="0.6" d="M27.6771 17.218C28.3021 16.7493 28.8646 16.1868 29.3021 15.5305C28.7396 15.7805 28.0833 15.968 27.4271 16.0305C28.1146 15.6243 28.6146 14.9993 28.8646 14.218C28.2396 14.593 27.5208 14.8743 26.8021 15.0305C26.1771 14.3743 25.3333 13.9993 24.3958 13.9993C22.5833 13.9993 21.1146 15.468 21.1146 17.2805C21.1146 17.5305 21.1458 17.7805 21.2083 18.0305C18.4896 17.8743 16.0521 16.5618 14.4271 14.593C14.1458 15.0618 13.9896 15.6243 13.9896 16.2493C13.9896 17.3743 14.5521 18.3743 15.4583 18.968C14.9271 18.9368 14.3958 18.8118 13.9583 18.5618V18.593C13.9583 20.1868 15.0833 21.4993 16.5833 21.8118C16.3333 21.8743 16.0208 21.9368 15.7396 21.9368C15.5208 21.9368 15.3333 21.9055 15.1146 21.8743C15.5208 23.1868 16.7396 24.1243 18.1771 24.1555C17.0521 25.0305 15.6458 25.5618 14.1146 25.5618C13.8333 25.5618 13.5833 25.5305 13.3333 25.4993C14.7708 26.4368 16.4896 26.968 18.3646 26.968C24.3958 26.968 27.6771 21.9993 27.6771 17.6555C27.6771 17.4993 27.6771 17.3743 27.6771 17.218Z" fill="#FF7342"/>
</g>
<defs>
<clipPath id="clip0_1_59">
<rect width="42" height="40" fill="white" transform="translate(0 0.134766)"/>
</clipPath>
</defs>
</svg>
