<svg width="126" height="57" viewBox="0 0 126 57" fill="none" xmlns="http://www.w3.org/2000/svg">
<path fill-rule="evenodd" clip-rule="evenodd" d="M52.5 28.7903C52.5 28.3262 52.3156 27.8811 51.9875 27.5529C51.6593 27.2247 51.2141 27.0403 50.75 27.0403H9.47452L20.489 16.0293C20.6517 15.8666 20.7808 15.6735 20.8688 15.4609C20.9569 15.2483 21.0022 15.0205 21.0022 14.7903C21.0022 14.5602 20.9569 14.3324 20.8688 14.1198C20.7808 13.9072 20.6517 13.7141 20.489 13.5513C20.3263 13.3886 20.1331 13.2596 19.9206 13.1715C19.708 13.0835 19.4801 13.0381 19.25 13.0381C19.0199 13.0381 18.7921 13.0835 18.5795 13.1715C18.3669 13.2596 18.1737 13.3886 18.011 13.5513L4.01102 27.5513C3.84804 27.7139 3.71874 27.907 3.63052 28.1196C3.5423 28.3322 3.49689 28.5602 3.49689 28.7903C3.49689 29.0205 3.5423 29.2485 3.63052 29.4611C3.71874 29.6737 3.84804 29.8668 4.01102 30.0293L18.011 44.0293C18.1737 44.1921 18.3669 44.3211 18.5795 44.4092C18.7921 44.4972 19.0199 44.5426 19.25 44.5426C19.4801 44.5426 19.708 44.4972 19.9206 44.4092C20.1331 44.3211 20.3263 44.1921 20.489 44.0293C20.6517 43.8666 20.7808 43.6735 20.8688 43.4609C20.9569 43.2483 21.0022 43.0204 21.0022 42.7903C21.0022 42.5602 20.9569 42.3324 20.8688 42.1198C20.7808 41.9072 20.6517 41.7141 20.489 41.5513L9.47452 30.5403H50.75C51.2141 30.5403 51.6593 30.356 51.9875 30.0278C52.3156 29.6996 52.5 29.2545 52.5 28.7903Z" fill="#FF7342"/>
<path fill-rule="evenodd" clip-rule="evenodd" d="M88.4987 28.7906C88.4987 28.4591 88.6304 28.1411 88.8648 27.9067C89.0992 27.6723 89.4172 27.5406 89.7487 27.5406H119.231L111.364 19.6756C111.247 19.5594 111.155 19.4214 111.092 19.2696C111.029 19.1177 110.997 18.955 110.997 18.7906C110.997 18.6262 111.029 18.4635 111.092 18.3116C111.155 18.1598 111.247 18.0218 111.364 17.9056C111.48 17.7894 111.618 17.6972 111.77 17.6343C111.922 17.5714 112.084 17.539 112.249 17.539C112.413 17.539 112.576 17.5714 112.728 17.6343C112.879 17.6972 113.017 17.7894 113.134 17.9056L123.134 27.9056C123.25 28.0217 123.342 28.1596 123.405 28.3115C123.468 28.4634 123.501 28.6262 123.501 28.7906C123.501 28.955 123.468 29.1178 123.405 29.2697C123.342 29.4215 123.25 29.5595 123.134 29.6756L113.134 39.6756C113.017 39.7918 112.879 39.884 112.728 39.9469C112.576 40.0098 112.413 40.0422 112.249 40.0422C112.084 40.0422 111.922 40.0098 111.77 39.9469C111.618 39.884 111.48 39.7918 111.364 39.6756C111.247 39.5594 111.155 39.4214 111.092 39.2696C111.029 39.1177 110.997 38.955 110.997 38.7906C110.997 38.6262 111.029 38.4635 111.092 38.3116C111.155 38.1598 111.247 38.0218 111.364 37.9056L119.231 30.0406H89.7487C89.4172 30.0406 89.0992 29.9089 88.8648 29.6745C88.6304 29.4401 88.4987 29.1221 88.4987 28.7906Z" fill="#3B3B3B"/>
</svg>
